<?xml version="1.0" standalone="no"?><!DOCTYPE svg PUBLIC "-//W3C//DTD SVG 1.1//EN" "http://www.w3.org/Graphics/SVG/1.1/DTD/svg11.dtd"><svg t="1727518760904" class="icon" viewBox="0 0 1024 1024" version="1.1" xmlns="http://www.w3.org/2000/svg" p-id="8482" xmlns:xlink="http://www.w3.org/1999/xlink" width="200" height="200"><path d="M512 24.234667C242.688 24.234667 24.234667 242.688 24.234667 512s218.453333 487.765333 487.765333 487.765333 487.765333-218.453333 487.765333-487.765333S781.312 24.234667 512 24.234667z m140.629333 153.6c0.341333-15.018667 8.874667-26.965333 22.186667-32.085334 13.653333-5.12 27.648-2.048 37.888 8.874667 6.485333 6.826667 8.874667 15.36 9.216 24.576v67.925333c-0.341333 20.48-15.36 35.84-34.474667 35.84-19.456 0-34.816-16.042667-34.816-36.181333V177.834667z m-350.208 0c0.341333-15.018667 8.874667-26.965333 22.186667-32.085334 13.653333-5.12 27.648-2.048 37.888 8.874667 6.485333 6.826667 9.216 15.36 9.216 24.576 0.341333 11.264 0.341333 22.869333 0 34.133333v33.792c-0.341333 20.138667-15.36 35.84-34.474667 35.84-19.456 0-34.816-16.042667-34.816-36.181333V177.834667z m559.104 567.978666c0 43.690667-30.037333 73.386667-73.386666 73.386667H233.130667c-40.277333 0-70.997333-30.72-70.997334-70.997333-0.341333-111.274667 0-222.890667 0-333.824V283.648c0.341333-33.109333 20.48-59.392 52.224-68.266667 3.072-1.024 6.144-1.706667 9.216-1.706666h54.613334v37.546666c0 31.061333 22.869333 56.661333 51.882666 59.392 32.085333 3.072 59.050667-17.749333 64.512-49.152 1.365333-6.485333 0.682667-13.653333 0.682667-20.48v-27.648H628.053333v38.229334c0 24.917333 13.994667 46.08 37.205334 55.296 36.864 15.018667 79.189333-12.629333 80.213333-52.565334 0.341333-13.653333 0-26.965333 0-41.984 21.162667 1.024 41.642667-0.682667 61.44 3.072 32.768 5.802667 54.272 34.816 54.272 68.949334 0.341333 43.690667 0 87.381333 0 131.072 0.341333 110.592 0.341333 220.501333 0.341333 330.410666z" fill="#0C0C0C" p-id="8483"></path><path d="M208.554667 410.624v311.978667c0 18.090667 8.874667 27.306667 27.306666 27.306666h555.008c8.874667 0 16.384-2.730667 20.48-9.898666 3.072-5.802667 4.437333-12.970667 4.437334-19.114667 0.341333-93.184 0.341333-186.026667 0.341333-279.210667v-68.608h-607.573333v37.546667z m279.893333 291.84h-91.818667v-75.434667h91.818667v75.434667z m188.074667-280.576h91.818666v75.434667h-91.818666v-75.434667z m0 102.4h91.818666v75.434667h-91.818666v-75.434667z m-139.946667-102.058667h91.818667v75.093334h-91.818667v-75.093334z m0 102.4h91.818667v75.434667h-91.818667v-75.434667z m0 102.4h91.818667v75.093334h-91.818667v-75.093334z m-139.946667-204.8h91.818667v75.434667h-91.818667v-75.434667z m-0.341333 102.4H488.106667v75.093334h-91.818667v-75.093334z m-139.605333 0h91.818666v75.434667H256.682667v-75.434667z m-0.341334 102.4H348.16v75.093334H256.341333v-75.093334z" fill="#0C0C0C" p-id="8484"></path></svg>