<?xml version="1.0" standalone="no"?><!DOCTYPE svg PUBLIC "-//W3C//DTD SVG 1.1//EN" "http://www.w3.org/Graphics/SVG/1.1/DTD/svg11.dtd"><svg t="1727971403437" class="icon" viewBox="0 0 1024 1024" version="1.1" xmlns="http://www.w3.org/2000/svg" p-id="4340" xmlns:xlink="http://www.w3.org/1999/xlink" width="200" height="200"><path d="M56.832 56.832m170.752 0l568.832 0q170.752 0 170.752 170.752l0 568.832q0 170.752-170.752 170.752l-568.832 0q-170.752 0-170.752-170.752l0-568.832q0-170.752 170.752-170.752Z" fill="#58A0D8" p-id="4341"></path><path d="M625.664 426.752a56.832 56.832 0 0 1 57.088 56.832v142.08a57.088 57.088 0 0 1-57.088 57.088h-198.912a57.088 57.088 0 0 1-57.088-57.088v-142.08a56.832 56.832 0 0 1 57.088-56.832zM526.336 512a14.336 14.336 0 0 0-14.336 14.336v56.832a14.336 14.336 0 0 0 28.416 0v-56.832a14.336 14.336 0 0 0-14.08-14.336z" fill="#FFFFFF" p-id="4342"></path><path d="M625.664 512h-198.912v-128a98.048 98.048 0 0 1 29.184-70.4 102.4 102.4 0 0 1 140.8 0A98.816 98.816 0 0 1 625.664 384z m-170.496-28.416h142.08V384a70.656 70.656 0 0 0-20.736-51.2 72.96 72.96 0 0 0-100.608 0 70.656 70.656 0 0 0-20.736 51.2z" fill="#FFFFFF" p-id="4343"></path></svg>